<?xml version="1.0" encoding="UTF-8"?>
<svg width="24px" height="32px" viewBox="0 0 24 32" version="1.1" xmlns="http://www.w3.org/2000/svg" xmlns:xlink="http://www.w3.org/1999/xlink">
    <!-- Generator: Sketch 51 (57462) - http://www.bohemiancoding.com/sketch -->
    <title>Shape</title>
    <desc>Created with Sketch.</desc>
    <defs></defs>
    <g id="Symbols" stroke="none" stroke-width="1" fill="none" fill-rule="evenodd">
        <g id="Shape" fill="#BA4D50" fill-rule="nonzero">
            <path d="M14.4341476,29.8162827 C18.5175513,26.2528503 20.8577972,21.1314369 20.8617477,15.7500699 C20.8617477,10.6634337 18.7199698,5.73048587 14.9796021,2.19192391 L17.1991942,0 C21.5862503,4.17047467 24,9.75622495 24,15.7448475 C24,21.9266996 21.3210778,27.8429544 16.6454294,32 L14.4341476,29.8162827 Z M7.27297912,22.7443812 C9.72860321,21.2435919 11.2259103,18.5974366 11.2331906,15.7455936 C11.2331906,13.1687028 9.99345255,10.7261028 7.90833543,9.17579037 L10.1385042,6.97342162 C12.8310249,9.13848739 14.3721985,12.3278933 14.3721985,15.7455936 C14.3721985,19.4132239 12.5673634,22.8570363 9.53865527,24.9818148 L7.27297912,22.7443812 Z M2.37219845,18.616432 C1.0644674,18.616432 0,17.5659797 0,16.273804 C0,14.9816283 1.0644674,13.931176 2.37219845,13.931176 C3.68068499,13.931176 4.7443969,14.9823743 4.74439687,16.273804 C4.74439684,17.5652336 3.68068496,18.616432 2.37219845,18.616432 Z"></path>
        </g>
    </g>
</svg>