<?xml version="1.0" encoding="UTF-8"?>
<svg width="168px" height="168px" viewBox="0 0 168 168" version="1.1" xmlns="http://www.w3.org/2000/svg" xmlns:xlink="http://www.w3.org/1999/xlink">
    <!-- Generator: Sketch 51 (57462) - http://www.bohemiancoding.com/sketch -->
    <title>Group 2</title>
    <desc>Created with Sketch.</desc>
    <defs>
        <filter x="-25.0%" y="-25.0%" width="150.0%" height="150.0%" filterUnits="objectBoundingBox" id="filter-1">
            <feGaussianBlur stdDeviation="10" in="SourceGraphic"></feGaussianBlur>
        </filter>
    </defs>
    <g id="Symbols" stroke="none" stroke-width="1" fill="none" fill-rule="evenodd">
        <g id="Group-2" transform="translate(24.000000, 14.000000)">
            <g>
                <circle id="Oval-2" fill="#A92124" fill-rule="nonzero" opacity="0.410100446" filter="url(#filter-1)" cx="60" cy="70" r="60"></circle>
                <circle id="Oval-2-Copy" fill="#A92124" fill-rule="nonzero" cx="60" cy="60" r="60"></circle>
                <text id="到这去" font-family="PingFang-SC-Regular, PingFang SC" font-size="24" font-weight="normal" fill="#FFFFFF">
                    <tspan x="24" y="91">到这去</tspan>
                </text>
                <g id="走路" transform="translate(40.000000, 16.000000)" fill="#FFFFFF" fill-rule="nonzero">
                    <path d="M16,6.5 C16,10.0898509 18.6862915,13 22,13 C25.3137085,13 28,10.0898509 28,6.5 C28,2.91014913 25.3137085,0 22,0 C18.6862915,0 16,2.91014913 16,6.5 Z" id="Shape"></path>
                    <path d="M1.51911917,30.4418075 C1.81161826,26.9492737 3.37599556,23.7501835 6.21225106,20.8445369 C10.4666343,16.4860669 13.7705974,16.245835 15.1086994,16.1535883 C17.8035395,15.967803 22.1075278,15.9306459 23.7158537,16.1535883 C25.5815228,16.412168 26.1075939,17.3120712 26.5114017,19.0265954 C27.3509113,22.5910615 29.0538705,23.548042 31.7628263,24.6788212 C33.5687968,25.432674 36.0514229,25.9615081 39.2107048,26.2653236 L39.2107048,30.0849782 C32.2924121,30.3228644 27.47116,28.8392264 24.7469483,25.6340642 C24.5436741,25.3949027 24.1305078,27.3238059 23.7158537,30.0849782 C29.2642152,33.0712964 32.849616,35.4944078 34.471782,37.3541604 C36.0939481,39.2139131 36.9032497,42.7625263 36.8996869,48 L31.4509465,48 C31.0710982,45.1386025 30.3829315,42.9305309 29.3863093,41.3757853 C28.3896871,39.8211156 25.4595658,37.7873555 20.5958082,35.2746568 C18.7372647,37.7198801 11.4851592,46.29731 7.86906356,48 L0,48 C4.54406556,44.3959932 7.76921338,41.5957642 9.6755805,39.5993891 C11.5816736,37.6030139 12.9370414,35.6159851 13.7412729,33.6383785 L13.7412729,21.514463 C12.3065644,21.750019 10.3084785,23.4359425 9.0327253,24.8776212 C8.1822232,25.8387403 6.9977018,27.6934691 5.4791611,30.4418075 L1.51911917,30.4418075 Z" id="Shape"></path>
                </g>
            </g>
        </g>
    </g>
</svg>