<svg xmlns="http://www.w3.org/2000/svg" viewBox="0 0 40 40"><defs><style>.a,.d{fill:none;}.a{stroke:#a92124;stroke-linecap:square;stroke-miterlimit:10;stroke-width:2px;}.b{fill:#a92124;}.c{stroke:none;}</style></defs><g class="a"><circle class="c" cx="20" cy="20" r="20"/><circle class="d" cx="20" cy="20" r="19"/></g><path class="b" d="M16.043,17.89a.956.956,0,0,1-.6-.21L5.5,9.7a.973.973,0,0,1,0-1.514L15.447.21A.949.949,0,0,1,16.458.1.973.973,0,0,1,17,.967V16.924a.972.972,0,0,1-.542.87A.951.951,0,0,1,16.043,17.89ZM15.085,2.971h0L7.64,8.945l7.445,5.974V2.971ZM1.077,17.809A1.084,1.084,0,0,1,0,16.721V1.36A1.084,1.084,0,0,1,1.077.272,1.084,1.084,0,0,1,2.155,1.36V16.721A1.084,1.084,0,0,1,1.077,17.809Z" transform="translate(11 11)"/></svg>