<?xml version="1.0" encoding="UTF-8"?>
<svg width="34px" height="34px" viewBox="0 0 34 34" version="1.1" xmlns="http://www.w3.org/2000/svg" xmlns:xlink="http://www.w3.org/1999/xlink">
    <!-- Generator: Sketch 51 (57462) - http://www.bohemiancoding.com/sketch -->
    <title>播放按钮</title>
    <desc>Created with Sketch.</desc>
    <defs></defs>
    <g id="Symbols" stroke="none" stroke-width="1" fill="none" fill-rule="evenodd">
        <g id="播放按钮" fill-rule="nonzero">
            <g>
                <circle id="Oval" fill="#A92124" opacity="0.8" cx="17" cy="17" r="17"></circle>
                <g id="耳机,音乐" transform="translate(5.000000, 5.000000)" fill="#FFFFFF">
                    <path d="M20.4,15.0005958 L19.8,15.0005958 L15.6047619,20.9994042 L15.6047619,22.1982125 L20.4,15.0005958 Z M3.01904762,14.4023833 L3.61904762,14.4023833 L7.81428571,20.4011917 L7.81428571,21.6 L3.01904762,14.4023833 Z" id="Shape"></path>
                    <path d="M12.0047619,0 L12.002381,0 L12,0 C5.39047619,0 0.0142857143,5.36961271 0.0142857143,11.9714002 C0.0142857143,13.5849057 0.328571429,15.1507448 0.952380952,16.6260179 C2.66666667,20.682423 5.68809524,23.5567031 5.81428571,23.6758689 C6.04285714,23.8903674 6.33571429,24 6.63095238,24 C6.85952381,24 7.09047619,23.9332671 7.29285714,23.7998014 L10.8714286,21.4069513 C11.4119048,21.0446872 11.5642857,20.3177756 11.2166667,19.7696127 L7.04047619,13.1845084 C6.78809524,12.7888779 6.32857143,12.5743793 5.86428571,12.6411122 L2.46666667,13.1273088 C2.42142857,12.7459782 2.39761905,12.3598808 2.39761905,11.9714002 C2.39761905,6.68997021 6.7047619,2.39285005 11.997619,2.39285005 L12.002381,2.39285005 C17.2952381,2.39285005 21.602381,6.68997021 21.602381,11.9714002 C21.602381,12.3598808 21.5785714,12.7459782 21.5333333,13.1273088 L18.1357143,12.6411122 C17.6690476,12.571996 17.2119048,12.7864945 16.9595238,13.1845084 L12.7880952,19.7672294 C12.4404762,20.3153923 12.5928571,21.0446872 13.1333333,21.404568 L16.7119048,23.7974181 C16.9142857,23.9332671 17.1452381,23.9976167 17.3738095,23.9976167 C17.6690476,23.9976167 17.9642857,23.8879841 18.1904762,23.6734856 C18.3190476,23.5543198 21.3380952,20.6800397 23.052381,16.6236346 C23.6761905,15.1483615 23.9928571,13.5825223 23.9928571,11.9714002 C23.9928571,5.36961271 18.6142857,0 12.0047619,0 Z M5.44285714,15.1197617 L8.57857143,20.0627607 L6.79761905,21.2520357 C5.88333333,20.2510427 4.21428571,18.2109235 3.15,15.6917577 L3.05714286,15.4629593 L5.44285714,15.1197617 Z M20.8547619,15.6917577 C19.7952381,18.2013903 18.1214286,20.2462761 17.2071429,21.2544191 L15.4285714,20.0627607 L18.5642857,15.1197617 L20.95,15.460576 C20.9190476,15.5392254 20.8880952,15.6154916 20.8547619,15.6917577 Z" id="Shape"></path>
                </g>
            </g>
        </g>
    </g>
</svg>