<svg xmlns="http://www.w3.org/2000/svg" viewBox="0 0 67 67"><defs><style>.a{fill:#fff;opacity:0.8;}.b{fill:#d81e06;}</style></defs><circle class="a" cx="33.5" cy="33.5" r="33.5"/><g transform="translate(19 19)"><path class="b" d="M15.732,9.745v-1.5l5.244-7.5h.75L15.734,9.742ZM5.994,9l0,0L0,0H.75L5.994,7.5V9Z" transform="translate(3.774 18.003)"/><path class="b" d="M8.271,30a1.487,1.487,0,0,1-1.021-.405,28.665,28.665,0,0,1-6.078-8.812A14.974,14.974,0,0,1,14.982,0h.005A14.964,14.964,0,0,1,28.8,20.779a28.9,28.9,0,0,1-6.077,8.813,1.491,1.491,0,0,1-1.849.155L16.4,26.756a1.506,1.506,0,0,1-.432-2.047l5.215-8.228a1.475,1.475,0,0,1,1.471-.68l4.247.608a12.383,12.383,0,0,0,.085-1.444,12,12,0,0,0-12-11.974H14.98a12,12,0,0,0-12,11.974,12.207,12.207,0,0,0,.086,1.444L7.313,15.8a1.486,1.486,0,0,1,1.471.68L14,24.712a1.507,1.507,0,0,1-.432,2.047L9.1,29.75A1.5,1.5,0,0,1,8.271,30ZM23.188,18.9l-3.92,6.179,2.223,1.49a25.865,25.865,0,0,0,4.559-6.953c.037-.085.073-.174.119-.289L23.188,18.9Zm-16.4,0L3.8,19.328l.116.286a25.562,25.562,0,0,0,4.559,6.951l2.227-1.487Z" transform="translate(0.018)"/></g></svg>