<svg xmlns="http://www.w3.org/2000/svg" viewBox="0 0 40 40"><defs><style>.a,.d{fill:none;}.a{stroke:#a92124;stroke-linecap:square;stroke-miterlimit:10;stroke-width:2px;}.b{fill:#a92124;}.c{stroke:none;}</style></defs><g transform="translate(-515 -22)"><g class="a" transform="translate(515 22)"><circle class="c" cx="20" cy="20" r="20"/><circle class="d" cx="20" cy="20" r="19"/></g><path class="b" d="M-16.043,17.89a.956.956,0,0,0,.6-.21L-5.5,9.7a.966.966,0,0,0,.362-.757A.966.966,0,0,0-5.5,8.188L-15.447.21A.954.954,0,0,0-16.042,0a.959.959,0,0,0-.417.1A.973.973,0,0,0-17,.967V16.924a.972.972,0,0,0,.542.87A.951.951,0,0,0-16.043,17.89Zm.958-14.919h0L-7.64,8.945l-7.445,5.974V2.971ZM-1.077,17.809A1.084,1.084,0,0,0,0,16.721V1.36A1.084,1.084,0,0,0-1.077.272,1.084,1.084,0,0,0-2.155,1.36V16.721A1.084,1.084,0,0,0-1.077,17.809Z" transform="translate(545 33.039)"/></g></svg>