<?xml version="1.0" encoding="UTF-8"?>
<svg width="24px" height="29px" viewBox="0 0 24 29" version="1.1" xmlns="http://www.w3.org/2000/svg" xmlns:xlink="http://www.w3.org/1999/xlink">
    <!-- Generator: Sketch 51 (57462) - http://www.bohemiancoding.com/sketch -->
    <title>浏览</title>
    <desc>Created with Sketch.</desc>
    <defs></defs>
    <g id="Symbols" stroke="none" stroke-width="1" fill="none" fill-rule="evenodd">
        <g id="浏览" fill-rule="nonzero">
            <g transform="translate(12.000000, 14.500000) rotate(-270.000000) translate(-12.000000, -14.500000) translate(-2.000000, 3.000000)">
                <path d="M24.5295837,11.5 L28,11.5 C21.3376687,19.1666667 15.8710021,23 11.6,23 C5.1934969,23 -5.68434189e-14,17.8512746 -5.68434189e-14,11.5 L2.6,11.5 C2.6,16.4277131 6.62943725,20.4224138 11.6,20.4224138 C14.6151104,20.4224138 19.0263544,17.5025282 24.5295837,11.5 Z M28,11.5 C21.3376687,19.1666667 15.8710021,23 11.6,23 C5.1934969,23 -5.68434189e-14,17.8512746 -5.68434189e-14,11.5 L2.6,11.5 C2.6,16.4277131 6.62943725,20.4224138 11.6,20.4224138 C14.6151104,20.4224138 19.0263544,17.5025282 24.5295837,11.5 L28,11.5 Z" id="Oval-2" fill="#C45FA0"></path>
                <path d="M24.5295837,0 L28,0 C21.3376687,7.66666667 15.8710021,11.5 11.6,11.5 C5.1934969,11.5 -5.68434189e-14,6.35127462 -5.68434189e-14,0 L2.6,0 C2.6,4.92771307 6.62943725,8.92241379 11.6,8.92241379 C14.6151104,8.92241379 19.0263544,6.00252817 24.5295837,0 Z M28,0 C21.3376687,7.66666667 15.8710021,11.5 11.6,11.5 C5.1934969,11.5 -5.68434189e-14,6.35127462 -5.68434189e-14,0 L2.6,0 C2.6,4.92771307 6.62943725,8.92241379 11.6,8.92241379 C14.6151104,8.92241379 19.0263544,6.00252817 24.5295837,4.05920508e-14 L28,0 Z" id="Oval-2" fill="#4A5699" transform="translate(14.000000, 5.750000) scale(1, -1) translate(-14.000000, -5.750000) "></path>
                <ellipse id="Oval-3" fill="#C45FA0" cx="1.3" cy="11.5991379" rx="1.3" ry="1.2887931"></ellipse>
                <path d="M14.4515128,11.6039534 C14.45248,13.0826557 13.3364693,14.2695232 11.8687654,14.3266373 C10.3779463,14.3846143 9.1783403,13.1782827 9.12240597,11.7662507 C9.09168239,10.9905281 8.49197612,10.3416262 7.68539343,10.3416262 C6.9252991,10.3416262 6.21765731,10.989825 6.24841313,11.7662507 C6.36785791,14.7826552 8.80024358,17.1778678 11.8687331,17.1758863 C14.913914,17.1738727 17.32744,14.5583856 17.3255057,11.6039853 C17.3242484,9.76668188 14.45032,9.76655404 14.4515128,11.6039534 Z" id="Shape" fill="#F39A2B"></path>
                <path d="M9.16247881,11.4628141 C9.19072,10.0112785 10.3637612,8.84850957 11.8278866,8.8205438 C13.2927534,8.79257802 14.4657946,10.0533071 14.4931654,11.4628141 C14.5287893,13.2977844 17.402911,13.3012362 17.3671582,11.4628141 C17.3082579,8.43320983 14.8838675,6.02965538 11.8278866,5.9712948 C8.77206687,5.91290226 6.34570985,8.52129403 6.28848597,11.4628141 C6.25276537,13.3012681 9.12679045,13.2977844 9.16247881,11.4628141 Z" id="Shape" fill="#E5594F"></path>
            </g>
        </g>
    </g>
</svg>