<svg xmlns="http://www.w3.org/2000/svg" viewBox="0 0 31.51 26.827"><defs><style>.a{fill:#4c5aa3;}.b{fill:#667dc5;}.c{fill:#d860b5;}.d{fill:#f35a50;}.e{fill:#f9d73b;}.f{fill:#fd9e22;}</style></defs><g transform="translate(0 13.875) rotate(-30)"><path class="a" d="M1.76,0A1.759,1.759,0,1,0,3.519,1.759,1.759,1.759,0,0,0,1.76,0Z" transform="translate(14.955 5.278)"/><path class="b" d="M17.7,0H1.29A1.534,1.534,0,0,0,0,1.694v.131A1.534,1.534,0,0,0,1.29,3.519H17.7a1.534,1.534,0,0,0,1.29-1.694V1.694A1.534,1.534,0,0,0,17.7,0Z" transform="translate(0 11.436)"/><path class="c" d="M1.512,0h-.1A1.517,1.517,0,0,0,0,1.606V13.349a1.517,1.517,0,0,0,1.41,1.606h.1a1.517,1.517,0,0,0,1.409-1.606V1.606A1.517,1.517,0,0,0,1.512,0Z"/><path class="d" d="M17.7,0H1.29A1.534,1.534,0,0,0,0,1.694v.13A1.534,1.534,0,0,0,1.29,3.519H17.7a1.534,1.534,0,0,0,1.29-1.694v-.13A1.534,1.534,0,0,0,17.7,0Z"/><path class="e" d="M10.787.9,10.742.8A1.2,1.2,0,0,0,8.965.2L.667,5.771A1.738,1.738,0,0,0,.167,7.9L.213,8a1.2,1.2,0,0,0,1.777.6l8.3-5.571A1.738,1.738,0,0,0,10.787.9Z" transform="translate(16.796 6.158)"/><path class="f" d="M10.279,5.735,1.972.2A1.191,1.191,0,0,0,.205.819l-.045.1A1.767,1.767,0,0,0,.675,3.062L8.983,8.6a1.191,1.191,0,0,0,1.766-.624l.045-.1a1.766,1.766,0,0,0-.514-2.144Z" transform="translate(16.796 0)"/></g></svg>