<svg xmlns="http://www.w3.org/2000/svg" viewBox="0 0 26 18"><defs><style>.a{fill:#e5594f;}.b{fill:#c45fa0;}.c{fill:#f39a2b;}.d{fill:#f0d043;}.e{fill:#4a5699;}</style></defs><path class="a" d="M1.5,0A1.5,1.5,0,1,0,3,1.5,1.5,1.5,0,0,0,1.5,0Z"/><path class="b" d="M1.5,0A1.5,1.5,0,1,0,3,1.5,1.5,1.5,0,0,0,1.5,0Z" transform="translate(0 7)"/><path class="c" d="M1.5,0A1.5,1.5,0,1,0,3,1.5,1.5,1.5,0,0,0,1.5,0Z" transform="translate(0 15)"/><path class="d" d="M16.687,0H1.312A1.385,1.385,0,0,0,0,1.448v.1A1.385,1.385,0,0,0,1.312,3H16.687A1.385,1.385,0,0,0,18,1.552v-.1A1.385,1.385,0,0,0,16.687,0Z" transform="translate(8)"/><path class="e" d="M16.687,0H1.312A1.385,1.385,0,0,0,0,1.448v.1A1.385,1.385,0,0,0,1.312,3H16.687A1.385,1.385,0,0,0,18,1.552v-.1A1.385,1.385,0,0,0,16.687,0Z" transform="translate(8 15)"/><path class="a" d="M11.6,0H1.4A1.425,1.425,0,0,0,0,1.448v.1A1.425,1.425,0,0,0,1.4,3H11.6A1.425,1.425,0,0,0,13,1.552v-.1A1.425,1.425,0,0,0,11.6,0Z" transform="translate(8 7)"/></svg>