<svg xmlns="http://www.w3.org/2000/svg" viewBox="0 0 24 25"><defs><style>.a{fill:#f39a2b;}.b{fill:#e5594f;}.c{fill:#4a5699;}.d{fill:#c45fa0;}</style></defs><path class="a" d="M7.459,3.767,2.078.22A1.346,1.346,0,0,0,.29.5L.237.572a1.139,1.139,0,0,0,.3,1.662L5.922,5.78A1.347,1.347,0,0,0,7.71,5.5l.053-.069a1.139,1.139,0,0,0-.3-1.662Z" transform="translate(7 8)"/><path class="b" d="M8.443.258,8.366.211A1.457,1.457,0,0,0,6.524.482L.244,8.147a1.05,1.05,0,0,0,.313,1.6l.077.047a1.457,1.457,0,0,0,1.842-.271l6.28-7.664a1.05,1.05,0,0,0-.313-1.6Z" transform="translate(6 10)"/><path class="c" d="M21.218,1.412a10.214,10.214,0,0,1-.673,3.657A10.668,10.668,0,0,1,18.82,7.92a9.162,9.162,0,0,1-5.889,3.121A8.928,8.928,0,0,1,6.3,9.025c.187.147-.184-.164-.173-.154-.112-.1-.219-.2-.327-.3-.215-.205-.418-.424-.617-.647A7.672,7.672,0,0,1,4.166,6.512a9.485,9.485,0,0,1-1.247-3.4,9.147,9.147,0,0,1-.137-1.7A1.391,1.391,0,1,0,0,1.412,12.648,12.648,0,0,0,9.052,13.619,11.922,11.922,0,0,0,22.6,7.318,13.247,13.247,0,0,0,24,1.412a1.391,1.391,0,1,0-2.782,0Z" transform="translate(0 11)"/><path class="d" d="M2.782,12.588a10.213,10.213,0,0,1,.673-3.657A10.673,10.673,0,0,1,5.18,6.08,9.162,9.162,0,0,1,11.068,2.96,8.928,8.928,0,0,1,17.7,4.975c-.187-.147.184.164.173.154.112.1.219.2.327.3.215.205.418.424.617.647a7.671,7.671,0,0,1,1.013,1.408,9.482,9.482,0,0,1,1.248,3.4,9.147,9.147,0,0,1,.137,1.7,1.391,1.391,0,1,0,2.782,0A12.648,12.648,0,0,0,14.948.381,11.922,11.922,0,0,0,1.4,6.682,13.247,13.247,0,0,0,0,12.588,1.391,1.391,0,1,0,2.782,12.588Z" transform="translate(0)"/></svg>