<svg xmlns="http://www.w3.org/2000/svg" xmlns:xlink="http://www.w3.org/1999/xlink" viewBox="0 0 32 32"><defs><style>.a{fill:url(#a);}.b{fill:#fff;}</style><linearGradient id="a" x1="0.099" x2="0.912" y2="1" gradientUnits="objectBoundingBox"><stop offset="0" stop-color="#d6e4f9"/><stop offset="1" stop-color="#5a94ff"/></linearGradient></defs><g transform="translate(0 -9)"><rect class="a" width="32" height="32" rx="5" transform="translate(0 9)"/><g transform="translate(3 14)"><path class="b" d="M19.448,21.587H16.1a1.928,1.928,0,0,1-1.948-1.9V14.368a.324.324,0,0,0-.331-.324H9.819a.328.328,0,0,0-.33.324v5.316a1.928,1.928,0,0,1-1.948,1.9H4.086a1.928,1.928,0,0,1-1.948-1.9V11.96a.809.809,0,0,1,1.617,0v7.724a.327.327,0,0,0,.33.323H7.541a.327.327,0,0,0,.33-.323V14.368a1.929,1.929,0,0,1,1.948-1.9h4.006a1.929,1.929,0,0,1,1.949,1.9v5.316a.327.327,0,0,0,.33.323h3.344a.328.328,0,0,0,.331-.323V11.96a.808.808,0,0,1,1.616,0v7.724A1.928,1.928,0,0,1,19.448,21.587Zm3.745-11.075a.816.816,0,0,1-.522-.187L12.2,1.654a.33.33,0,0,0-.211-.076.345.345,0,0,0-.211.072L1.315,9.909a.821.821,0,0,1-.508.176.808.808,0,0,1-.628-.294A.777.777,0,0,1,.3,8.68L10.757.422a1.986,1.986,0,0,1,2.484.029L23.715,9.122A.787.787,0,0,1,24,9.669a.759.759,0,0,1-.188.563A.813.813,0,0,1,23.193,10.513Z" transform="translate(0.99 0.192)"/></g></g></svg>