<svg xmlns="http://www.w3.org/2000/svg" xmlns:xlink="http://www.w3.org/1999/xlink" viewBox="0 0 32 32"><defs><style>.a{fill:url(#a);}.b{fill:#fff;}</style><linearGradient id="a" x1="0.114" x2="0.933" y2="1" gradientUnits="objectBoundingBox"><stop offset="0" stop-color="#f6d4d4"/><stop offset="1" stop-color="#ea0404" stop-opacity="0.502"/></linearGradient></defs><g transform="translate(0 -83)"><rect class="a" width="32" height="32" rx="5" transform="translate(0 83)"/><g transform="translate(4 87)"><path class="b" d="M14.136,25A1.235,1.235,0,0,1,13,23.714V14.883A2.471,2.471,0,0,1,14.21,12.69l8.14-4.558A1.038,1.038,0,0,1,22.864,8,1.209,1.209,0,0,1,24,9.267v8.869A2.477,2.477,0,0,1,22.79,20.31l-8.14,4.558A1.046,1.046,0,0,1,14.136,25ZM22,11l-6.773,3.92a.579.579,0,0,0-.227.5V23l6.773-3.9A.578.578,0,0,0,22,18.6ZM9.863,25a1.084,1.084,0,0,1-.513-.151L1.21,20.31A2.455,2.455,0,0,1,0,18.136V9.267A1.209,1.209,0,0,1,1.137,8a1.03,1.03,0,0,1,.513.132l8.14,4.539A2.455,2.455,0,0,1,11,14.845v8.869A1.235,1.235,0,0,1,9.863,25ZM2,11v7.617a.6.6,0,0,0,.228.5L9,23V15.384a.613.613,0,0,0-.228-.5Zm10.035,0H12a2.564,2.564,0,0,1-1.238-.293L2.529,6.391A.934.934,0,0,1,2,5.509a.938.938,0,0,1,.527-.9L10.778.293A2.628,2.628,0,0,1,12.017,0a2.487,2.487,0,0,1,1.219.293l8.231,4.334A.893.893,0,0,1,22,5.509a.9.9,0,0,1-.527.882l-8.194,4.315A2.628,2.628,0,0,1,12.035,11Zm.474-9a1.048,1.048,0,0,0-.435.088L5,5.509l7.074,3.4A1.029,1.029,0,0,0,12.49,9a.915.915,0,0,0,.417-.087L20,5.509,12.926,2.088A1.017,1.017,0,0,0,12.509,2Z"/></g></g></svg>